<?xml version="1.0" standalone="no"?>
<!DOCTYPE svg PUBLIC "-//W3C//DTD SVG 20010904//EN"
 "http://www.w3.org/TR/2001/REC-SVG-20010904/DTD/svg10.dtd">
<svg version="1.0" xmlns="http://www.w3.org/2000/svg"
 width="2560.000000pt" height="1440.000000pt" viewBox="0 0 2560.000000 1440.000000"
 preserveAspectRatio="xMidYMid meet">

<g transform="translate(0.000000,1440.000000) scale(0.100000,-0.100000)"
fill="#000000" stroke="none">
<path d="M19003 11284 c4 -33 10 -131 13 -219 9 -239 -15 -369 -94 -500 -176
-290 -435 -469 -902 -623 -440 -145 -896 -219 -1635 -264 -125 -8 -1904 -13
-5837 -17 -3111 -3 -5659 -9 -5663 -13 -15 -15 7 -46 38 -53 18 -3 2608 -8
5757 -11 3260 -3 5830 -8 5970 -14 1453 -55 1741 -50 2060 36 87 24 262 103
275 125 9 14 2 11 -60 -22 -50 -27 -68 -31 -132 -30 -91 1 -135 22 -213 100
-64 63 -80 89 -86 135 -2 17 -6 43 -10 57 -3 14 -1 42 4 61 6 23 6 41 0 53 -8
13 -7 16 1 11 6 -4 11 -1 11 7 0 7 11 19 25 25 14 7 31 16 38 22 7 5 41 31 77
57 80 59 203 181 260 258 120 163 186 425 161 639 -18 153 -20 150 55 76 134
-132 349 -388 389 -463 11 -20 23 -37 26 -37 4 0 10 -13 14 -29 3 -16 12 -31
19 -34 7 -3 18 -24 26 -48 7 -24 24 -58 36 -75 27 -37 54 -100 54 -125 0 -11
5 -19 11 -19 16 0 2 53 -45 166 -91 217 -263 460 -481 678 -68 69 -135 130
-146 137 -22 11 -22 10 -16 -47z"/>
<path d="M19405 10092 c0 -199 -11 -246 -108 -442 -61 -125 -62 -125 -65 -227
-4 -109 6 -159 39 -189 19 -17 21 -17 57 1 52 27 213 190 262 266 23 35 54 91
70 124 58 124 100 385 64 399 -11 4 -14 1 -12 -12 5 -24 -25 -48 -72 -56 -34
-5 -43 -13 -66 -54 -15 -26 -34 -55 -42 -64 -18 -21 -48 -24 -55 -5 -3 6 -6 2
-6 -10 -1 -13 -5 -23 -11 -23 -6 0 -10 44 -10 113 -1 115 -21 303 -36 330 -5
9 -9 -53 -9 -151z"/>
<path d="M3913 9627 c-10 -13 -155 -352 -258 -607 -72 -175 -192 -463 -280
-670 -29 -69 -84 -201 -123 -295 -227 -553 -282 -686 -382 -935 -150 -372
-197 -467 -256 -519 -45 -40 -116 -69 -208 -86 -42 -8 -60 -27 -51 -55 6 -20
12 -20 396 -20 380 0 389 0 389 20 0 15 -12 23 -52 35 -91 26 -180 77 -202
114 -17 30 -18 39 -7 96 11 63 83 283 139 425 83 213 155 387 168 408 l14 22
555 0 555 0 14 -22 c17 -27 15 -24 201 -491 82 -207 149 -390 152 -417 l5 -48
-68 -31 c-136 -63 -139 -65 -139 -86 0 -19 9 -20 120 -26 205 -11 921 -10 950
1 22 8 24 13 16 29 -8 14 -30 22 -80 31 -88 15 -176 57 -222 106 -64 69 -132
203 -255 504 -36 91 -116 282 -176 425 -124 292 -373 888 -423 1010 -18 44
-67 161 -110 260 -42 99 -123 290 -180 425 -169 401 -181 425 -202 397z m-111
-763 c34 -85 387 -966 436 -1087 19 -48 33 -89 31 -92 -3 -2 -234 -5 -514 -5
-421 -2 -509 1 -507 12 6 27 127 330 224 563 133 318 184 445 218 535 47 124
60 152 73 147 7 -2 24 -35 39 -73z"/>
<path d="M21095 9063 c-130 -15 -201 -28 -288 -54 -347 -103 -682 -364 -862
-669 -64 -110 -94 -181 -127 -310 -39 -150 -50 -373 -24 -522 59 -347 228
-625 506 -834 156 -117 395 -221 592 -258 364 -68 716 -37 1008 87 261 111
536 331 665 532 112 173 187 359 215 537 20 121 8 358 -24 484 -63 252 -216
502 -401 654 -230 190 -479 301 -773 345 -93 14 -397 19 -487 8z m363 -149
c194 -48 373 -155 542 -324 259 -258 390 -590 390 -990 0 -266 -57 -472 -187
-670 -116 -176 -284 -297 -503 -364 -137 -41 -208 -49 -379 -43 -184 6 -282
30 -421 103 -237 125 -473 396 -594 682 -89 213 -116 345 -116 577 0 330 96
586 293 778 95 93 160 140 250 182 214 99 498 126 725 69z"/>
<path d="M6355 9050 c-128 -11 -206 -33 -315 -87 -237 -119 -369 -335 -370
-603 0 -251 132 -446 420 -617 47 -28 175 -98 285 -156 242 -126 290 -155 377
-224 81 -64 108 -98 148 -187 53 -116 58 -273 13 -388 -68 -175 -267 -283
-518 -281 -224 1 -403 67 -547 201 -66 62 -120 142 -178 266 -54 115 -73 138
-89 108 -22 -42 16 -341 59 -457 27 -72 50 -99 110 -130 129 -65 316 -99 550
-99 308 0 461 41 658 177 119 82 226 211 272 328 53 132 65 336 30 473 -32
127 -74 200 -170 297 -110 113 -218 182 -509 326 -347 173 -472 264 -538 393
-26 51 -28 63 -28 175 0 149 19 199 104 277 92 84 200 118 376 118 250 0 386
-76 481 -267 42 -83 49 -93 77 -93 15 0 17 12 16 128 -1 70 -4 159 -8 197 l-6
70 -60 12 c-186 37 -482 57 -640 43z"/>
<path d="M8945 9054 c-96 -8 -271 -35 -355 -56 -327 -80 -690 -328 -859 -587
-232 -356 -279 -723 -145 -1131 150 -454 602 -791 1160 -866 172 -23 484 -23
654 1 139 18 433 88 466 110 32 21 66 142 109 390 19 112 19 145 2 145 -22 0
-40 -26 -113 -160 -110 -200 -220 -289 -419 -341 -112 -29 -301 -36 -425 -15
-360 59 -701 295 -899 621 -73 120 -148 328 -173 479 -18 110 -15 355 6 456
86 406 329 696 676 808 212 69 565 81 777 26 163 -41 293 -149 374 -309 39
-76 50 -91 72 -93 l27 -3 -6 143 c-2 79 -7 175 -10 214 l-5 71 -147 32 c-81
18 -198 39 -259 46 -116 15 -420 26 -508 19z"/>
<path d="M12603 9031 c-78 -4 -145 -9 -149 -14 -25 -24 82 -53 122 -32 13 6
22 14 20 16 -5 5 1 5 205 15 150 6 159 6 203 -16 26 -12 45 -25 42 -28 -9 -8
25 -42 35 -36 5 3 9 0 9 -6 0 -11 62 -78 223 -244 31 -33 57 -62 57 -65 1 -11
38 -51 47 -51 6 0 15 -11 21 -24 6 -13 57 -73 114 -133 57 -60 112 -120 124
-133 92 -110 191 -220 270 -299 52 -51 94 -100 94 -108 0 -8 4 -12 9 -9 5 4 7
-3 4 -14 -3 -11 0 -20 6 -20 6 0 11 5 11 10 0 18 14 10 34 -18 l20 -27 -22 19
c-12 11 -22 14 -22 8 0 -8 -26 -12 -80 -12 -64 0 -80 3 -80 15 0 8 9 15 20 15
14 0 20 7 20 21 0 19 -5 20 -132 18 -113 -1 -139 1 -173 17 -22 11 -40 25 -40
32 0 8 -8 19 -17 26 -10 7 -18 16 -18 20 0 14 -29 36 -46 36 -9 0 -50 34 -91
75 -40 41 -79 75 -86 75 -6 0 -22 15 -34 33 -26 37 -82 92 -163 157 -30 25
-57 47 -60 50 -3 3 -13 11 -22 19 -41 32 -11 -3 90 -105 88 -89 235 -247 677
-728 6 -6 40 -45 76 -86 36 -41 176 -199 310 -349 134 -151 302 -340 372 -420
213 -241 297 -321 336 -321 7 0 10 379 10 1141 0 795 4 1159 11 1202 19 103
73 167 185 218 34 15 67 35 74 43 12 15 -20 16 -365 14 -329 -3 -379 -5 -379
-18 0 -10 18 -19 55 -26 77 -16 108 -30 157 -70 45 -37 88 -101 103 -153 11
-41 22 -1265 13 -1469 l-8 -163 -160 177 c-88 98 -222 248 -299 333 -76 86
-209 230 -295 321 -165 174 -389 412 -606 645 -71 77 -195 206 -275 287 l-145
148 -135 -2 c-74 -1 -199 -4 -277 -7z m2437 -67 c0 -23 -9 -43 -31 -66 -17
-18 -35 -45 -41 -60 -6 -18 -17 -28 -31 -29 -12 0 -16 -3 -9 -6 15 -6 16 -43
1 -43 -8 0 -9 -11 -5 -32 4 -21 3 -28 -3 -19 -5 8 -16 11 -26 7 -32 -12 -54 3
-61 42 -7 38 -40 92 -93 151 -17 18 -28 37 -25 42 3 5 0 9 -5 9 -6 0 -11 7
-11 16 0 15 10 16 88 10 49 -3 93 -2 102 4 8 5 45 8 82 8 l68 -2 0 -32z"/>
<path d="M15657 9030 c-119 -3 -217 -8 -217 -12 0 -5 0 -14 0 -22 0 -9 22 -18
62 -26 120 -23 218 -85 236 -148 4 -15 7 -479 7 -1032 0 -1065 -1 -1086 -47
-1179 -27 -54 -64 -75 -169 -97 -41 -8 -80 -21 -87 -28 -15 -15 -6 -43 16 -50
10 -3 346 -6 747 -7 818 -3 851 0 1055 67 373 123 649 357 809 686 114 234
156 529 116 805 -58 388 -310 718 -686 901 -269 130 -443 153 -1149 150 -261
-2 -573 -5 -693 -8z m154 -35 c32 -5 49 -12 49 -21 0 -8 10 -14 23 -14 17 0
19 2 7 10 -22 14 -8 21 55 27 43 5 59 3 66 -8 5 -9 29 -14 66 -15 95 -3 100
-3 85 -13 -15 -9 -12 -46 3 -46 6 0 69 7 140 14 146 15 486 10 570 -9 310 -70
559 -261 745 -569 118 -197 179 -438 180 -708 0 -387 -163 -762 -403 -925
-206 -140 -434 -187 -838 -174 -289 10 -331 19 -383 90 -21 27 -21 32 -21
1151 0 918 -2 1126 -13 1137 -7 7 -13 9 -12 3 5 -26 -2 -44 -29 -72 -15 -16
-31 -41 -34 -54 -31 -126 -27 -119 -69 -119 -21 0 -38 -4 -38 -10 0 -5 -9 -10
-20 -10 -11 0 -20 5 -20 10 0 6 -18 10 -40 10 -22 0 -40 5 -40 10 0 6 9 10 20
10 11 0 20 5 20 11 0 7 -14 8 -40 4 -36 -6 -40 -5 -40 14 0 11 -4 23 -10 26
-5 3 -10 16 -10 28 0 31 -20 97 -28 95 -14 -4 -53 23 -47 32 3 6 0 8 -7 5 -7
-3 -18 5 -23 17 -6 13 -20 24 -32 26 -14 2 -23 10 -23 20 0 14 13 18 71 20 39
2 93 1 120 -3z m149 -365 c0 -5 -9 -10 -20 -10 -11 0 -20 5 -20 10 0 6 9 10
20 10 11 0 20 -4 20 -10z"/>
<path d="M11937 9023 c-15 -4 -18 -11 -13 -31 11 -46 19 -179 12 -207 l-7 -27
-21 29 c-12 15 -25 33 -30 38 -12 14 32 -85 48 -110 8 -11 14 -27 14 -36 0
-17 37 -56 45 -47 11 11 -8 398 -19 397 -6 -1 -19 -3 -29 -6z"/>
<path d="M18467 9023 c-15 -15 -6 -43 16 -47 178 -37 175 -36 221 -80 74 -72
71 -29 70 -1146 -1 -1022 -4 -1107 -43 -1160 -27 -38 -97 -73 -181 -90 -69
-14 -75 -17 -75 -40 l0 -25 492 -3 c431 -2 493 0 507 13 27 27 8 42 -77 58
-95 19 -150 53 -181 112 -21 39 -21 57 -29 780 -8 801 -5 1439 8 1468 12 28
103 69 253 113 7 2 12 14 10 26 l-3 23 -491 3 c-270 1 -494 -1 -497 -5z"/>
<path d="M10280 9007 c0 -15 41 -37 67 -37 10 0 14 6 10 20 -3 10 0 21 7 24 6
2 -10 5 -36 5 -34 1 -48 -3 -48 -12z"/>
<path d="M10515 8892 c17 -16 36 -37 43 -48 11 -18 12 -17 6 6 -6 27 -48 70
-67 70 -6 0 2 -13 18 -28z"/>
<path d="M12858 8634 c-4 -3 -5 -225 -2 -493 5 -546 -10 -1422 -27 -1491 -15
-67 -50 -97 -144 -125 -44 -13 -95 -26 -112 -30 -40 -8 -46 -41 -10 -54 29
-11 748 -14 765 -3 27 18 -2 39 -86 65 -121 38 -183 74 -204 117 -39 80 -42
153 -43 1017 l0 831 -27 -5 c-24 -5 -28 -2 -28 16 0 11 -4 21 -8 21 -5 0 -18
8 -29 18 -15 12 -19 26 -16 52 4 34 -16 78 -29 64z"/>
<path d="M10561 7750 c-2 -763 -10 -1050 -31 -1129 -15 -56 -59 -86 -166 -114
-74 -19 -89 -26 -89 -42 0 -19 11 -20 405 -28 223 -4 642 -6 932 -5 510 3 528
4 541 23 44 60 152 520 126 536 -19 11 -37 -7 -70 -73 -76 -150 -148 -229
-269 -292 -113 -60 -194 -71 -525 -71 -202 0 -302 4 -330 12 -60 19 -97 62
-106 125 -4 29 -8 275 -8 545 l-1 493 27 6 c47 12 753 -5 781 -19 18 -8 33
-31 50 -79 24 -66 50 -90 71 -64 5 6 10 116 11 244 1 188 -2 233 -12 230 -7
-3 -32 -38 -55 -79 -64 -112 -61 -111 -274 -121 -100 -5 -274 -7 -388 -6
l-206 3 -6 115 c-8 142 -7 138 -19 120 -5 -8 -10 -44 -10 -80 0 -97 -5 -106
-56 -119 -41 -11 -44 -13 -44 -46 0 -32 -2 -35 -30 -35 -23 0 -30 4 -30 20 0
16 -7 20 -30 20 -23 0 -30 -4 -30 -20 0 -13 -7 -20 -20 -20 -16 0 -20 7 -20
35 0 32 -3 35 -40 45 -33 9 -40 15 -40 36 0 14 -5 35 -12 47 -8 14 -14 115
-18 292 -5 193 -7 49 -9 -505z"/>
<path d="M13960 7942 c0 -12 19 -26 26 -19 2 2 -2 10 -11 17 -9 8 -15 8 -15 2z"/>
<path d="M8830 5694 c-294 -23 -563 -149 -724 -339 -151 -178 -226 -386 -226
-625 0 -122 25 -225 84 -345 103 -208 295 -365 537 -439 105 -32 281 -56 410
-56 152 0 389 35 481 71 l27 11 -15 46 c-14 48 -21 421 -8 469 4 13 23 30 48
42 43 20 73 47 63 57 -3 3 -140 8 -306 11 l-301 5 0 -26 c0 -14 2 -26 4 -26 3
0 40 -5 83 -10 116 -16 140 -26 153 -63 23 -66 33 -373 14 -464 -6 -33 -63
-47 -189 -46 -174 1 -320 46 -472 145 -248 162 -402 456 -403 768 0 285 150
542 385 658 117 58 187 74 351 79 185 7 282 -9 399 -67 88 -42 119 -70 162
-145 17 -28 38 -51 49 -53 18 -3 19 3 16 110 -4 157 -3 155 -65 173 -116 33
-441 68 -557 59z"/>
<path d="M12012 5675 c-201 -39 -365 -120 -522 -261 -94 -84 -156 -165 -210
-279 -66 -137 -84 -219 -84 -380 0 -149 20 -239 80 -360 97 -195 311 -371 544
-449 156 -52 459 -75 610 -47 248 46 454 167 614 362 90 109 144 214 181 349
82 304 10 579 -209 795 -121 120 -299 215 -476 256 -113 27 -421 35 -528 14z
m358 -95 c299 -77 528 -288 626 -576 58 -171 57 -412 -3 -578 -79 -220 -222
-358 -448 -432 -108 -36 -293 -44 -414 -20 -336 68 -606 332 -703 686 -19 72
-23 108 -23 235 1 138 3 157 28 230 39 112 99 209 176 285 96 95 211 154 361
186 93 20 291 12 400 -16z"/>
<path d="M10033 5663 c-144 -2 -243 -7 -243 -13 0 -13 26 -25 88 -41 34 -8 58
-21 65 -34 9 -15 12 -220 12 -793 0 -676 -2 -774 -15 -782 -8 -6 -33 -15 -55
-22 -41 -12 -73 -33 -63 -43 8 -8 823 -10 933 -2 50 3 93 6 97 7 14 0 36 57
67 171 32 118 37 159 23 159 -15 0 -38 -32 -77 -107 -61 -118 -84 -133 -242
-154 -88 -12 -417 -9 -430 4 -9 9 -17 1474 -8 1522 6 33 42 60 115 85 56 19
61 45 10 45 -19 1 -144 -1 -277 -2z"/>
<path d="M17023 5663 c-192 -3 -233 -6 -233 -17 0 -9 27 -23 68 -36 100 -33
104 -40 113 -167 10 -137 11 -820 2 -1158 -7 -296 -4 -285 -98 -305 -51 -11
-78 -31 -61 -47 8 -8 824 -5 963 3 l102 7 15 46 c29 91 70 270 64 276 -13 13
-28 -7 -74 -95 -66 -128 -84 -144 -174 -161 -83 -15 -482 -20 -497 -6 -4 5 -8
354 -8 777 0 616 3 770 13 783 8 9 45 28 83 42 52 20 69 31 69 46 0 17 -7 19
-57 17 -32 -2 -163 -4 -290 -5z"/>
<path d="M13457 5646 c-8 -20 15 -30 87 -40 67 -10 95 -25 104 -55 4 -14 7
-359 7 -766 0 -691 -1 -743 -18 -768 -20 -30 -39 -37 -117 -40 -48 -2 -55 -5
-55 -22 0 -19 10 -20 330 -29 371 -10 482 -3 610 40 144 47 234 125 303 263
37 75 37 76 37 200 0 124 -1 127 -34 188 -66 123 -199 211 -355 235 l-78 12
28 23 c16 13 33 23 38 23 18 0 132 89 162 127 18 21 45 63 60 93 26 49 29 65
29 146 0 83 -3 95 -34 158 -53 104 -129 160 -267 198 -73 19 -109 21 -455 26
-341 4 -377 2 -382 -12z m636 -80 c91 -18 121 -32 168 -83 78 -83 114 -183
107 -297 -13 -197 -120 -280 -368 -288 l-105 -3 -3 343 -2 342 64 0 c35 0 98
-6 139 -14z m-43 -746 c127 -10 197 -28 263 -69 56 -34 126 -117 160 -189 31
-64 32 -72 32 -192 0 -121 -1 -128 -33 -192 -65 -132 -157 -178 -367 -185
-111 -3 -123 -2 -160 19 -22 13 -42 34 -46 48 -9 32 -11 755 -2 763 8 8 -1 9
153 -3z"/>
<path d="M15812 5558 c-22 -51 -84 -203 -137 -338 -101 -256 -131 -330 -240
-595 -217 -526 -242 -579 -285 -612 -8 -6 -43 -20 -78 -29 -64 -18 -99 -48
-64 -56 9 -2 110 -2 225 0 157 3 207 7 207 17 0 6 -29 20 -65 30 -35 9 -69 23
-76 31 -8 10 -5 34 14 101 33 114 125 349 144 368 12 13 62 15 307 15 266 0
294 -2 308 -17 31 -36 155 -430 144 -458 -2 -7 -31 -19 -63 -26 -32 -6 -65
-18 -73 -26 -13 -13 -13 -16 2 -27 13 -10 85 -13 283 -15 290 -2 338 2 333 28
-2 9 -14 17 -28 19 -104 11 -148 43 -192 142 -17 36 -65 160 -108 275 -94 253
-180 470 -333 835 -63 151 -127 310 -143 353 -16 42 -32 77 -35 77 -4 0 -25
-42 -47 -92z m-45 -330 c5 -7 16 -29 23 -48 7 -19 68 -166 136 -327 68 -160
124 -295 124 -299 0 -4 -48 -4 -107 -1 -60 4 -184 3 -278 -2 -93 -4 -173 -5
-177 -2 -4 3 20 74 53 156 76 188 166 425 187 488 16 49 23 55 39 35z"/>
<path d="M3063 4802 c-409 -2 -493 -5 -493 -16 0 -7 6 -18 13 -24 8 -7 716
-11 2192 -12 1199 -1 2208 -2 2241 -1 55 1 62 4 67 23 4 12 4 25 1 28 -6 5
-3106 7 -4021 2z"/>
<path d="M18705 4800 c-176 -4 -210 -7 -212 -20 -2 -8 1 -20 5 -27 11 -17
4163 -21 4205 -4 30 12 37 45 11 55 -19 7 -3709 4 -4009 -4z"/>
</g>
</svg>
